<svg version="1.2" xmlns="http://www.w3.org/2000/svg" viewBox="0 0 512 512" width="512" height="512">
	<title>file</title>
	<path id="Path 0" class="s0" d="m444 19.4c-3 1.1-7.7 4.2-10.5 6.7-3.3 3.1-6 6.7-7.9 11-2.6 5.9-2.8 7.2-2.5 15.7l0.4 9.4-85 72.5c-8.9-3.5-11.7-3.8-17.5-3.5-5.2 0.3-8.9 1.2-12 2.8-2.5 1.2-6.2 3.6-8.3 5.1l-3.7 2.9c-26.7-9.2-43.2-14.9-53.9-18.7l-19.5-6.8c-2.1-9.3-3.7-13.8-5-16-1.3-2.2-4.1-5.5-6.2-7.4-2.2-1.9-6.4-4.6-9.4-6-4.3-2-7.1-2.5-13-2.6-6.5 0-8.5 0.5-14 3.1-4.1 2-8.1 5-10.8 8-2.4 2.7-5.2 7.3-6.3 10.2-1 2.9-1.9 7.7-1.9 11 0 3.1 0.4 7 0.9 8.7 1 3 0.8 3.1-45.1 43.5-25.4 22.3-46.7 40.8-47.5 41.3-0.7 0.4-2.3 0.2-3.5-0.4-1.3-0.6-4.8-1.5-7.8-2-3.2-0.5-7.5-0.4-10.5 0.2-2.7 0.5-6.8 1.8-9 2.9-2.2 1-6 3.8-8.5 6.2-2.5 2.5-5.6 6.9-7.2 10.6-2.2 4.9-2.8 7.7-2.8 13.2 0 6.1 0.5 7.9 3.8 14.2 2 3.9 5.3 8.5 7.2 10.1 1.9 1.7 6 4.2 9 5.6 4.5 2.1 7 2.5 13.5 2.5 6 0 9.2-0.6 12.8-2.2 2.6-1.2 6.8-4.1 9.3-6.4 2.6-2.4 5.8-6.5 7.3-9.3 2.4-4.5 2.6-6 2.6-16.1v-11.1c69.8-60.9 90.7-79.2 91.5-80 1.3-1.1 2.1-1 5.5 0.3 2.5 1.1 6.9 1.7 11.5 1.7 5.9 0.1 8.7-0.5 13-2.4 3-1.4 7.1-4 9-5.7l3.5-3.1c57.4 20.1 74 25.9 74 25.9 0 0 0.3 2 0.8 4.5 0.4 2.5 1.8 6.8 3.2 9.5 1.4 2.8 4.2 6.6 6.3 8.6 2 2 6 4.8 8.7 6.2 4.3 2.3 6.2 2.7 14 2.7 7.7 0 9.8-0.4 14.5-2.7 3-1.4 7.5-4.8 9.9-7.5 2.5-2.6 5.4-6.8 6.4-9.3 1.1-2.5 2.2-7.2 2.5-10.5 0.2-3.3-0.1-7.7-0.7-9.7l-1.1-3.8c63.1-53.9 82.4-70.3 83.7-71.2 2.2-1.7 2.5-1.7 7-0.1 2.8 1 7.5 1.7 11.3 1.7 4-0.1 8.6-0.9 12-2.2 3.5-1.3 7.3-3.8 10.4-6.9 2.7-2.6 6.1-7.3 7.5-10.3 2.1-4.5 2.6-7 2.6-13.5 0-7-0.4-8.9-3.3-14.8-2.1-4.4-4.7-7.9-7.5-10.1-2.3-1.9-6.8-4.6-10-6-4.3-2-7.2-2.6-12-2.5-3.7 0.1-8.4 1-11.7 2.3zm-20 131.8c-2.6 1.4-5.3 3.7-6.5 5.8-2 3.5-2 4.7-2 160.5v157c3.3 5.4 5.9 7.8 7.9 8.8 3.2 1.5 7 1.7 32.6 1.7 23.8 0 29.5-0.3 32-1.5 1.6-0.8 4.1-3 5.5-4.7l2.5-3.3-0.5-316.4c-3.3-4.3-5.5-6.5-6.9-7.6-2.6-1.9-4.6-2-31.4-2.3-28.2-0.3-28.8-0.2-33.2 2zm-400.1 208.1c-1.9 1.2-4.4 4.2-5.7 6.7l-2.3 4.5c0.6 106.3 0.8 112.4 2.3 115.5 0.9 1.9 3.5 4.7 5.7 6.2l4.1 2.8h58c6.2-3.9 8.7-6.4 9.5-8 1.3-2.6 1.5-11.5 1.5-61.3 0-56.4-0.1-58.3-2-61.5-1.1-1.7-3.5-4.1-5.3-5.2-3-1.9-5-2-32.8-2-29 0-29.6 0-33 2.3zm133.3-129.3c-1.7 1.1-4.1 3.5-5.2 5.3-2 3.2-2 5-2 124 0 112.9 0.1 120.9 1.7 124.3 1 2 3.4 4.6 5.3 5.8 3.4 2 4.6 2.1 33 2.1 26.9 0 29.8-0.2 32.5-1.8 1.6-1 3.9-3.1 5-4.5 2-2.7 2-4.5 2.3-124.7 0.2-120.5 0.2-122-1.8-125.2-1.1-1.8-3.5-4.2-5.3-5.3-3-1.9-5-2-32.7-2-27.7 0-29.7 0.1-32.8 2zm134.2 42.9c-1.2 0.4-3.5 2.2-5 4l-2.9 3.2c-0.6 192.1-0.5 197.6 1.2 200.7 1 1.9 3.4 4.4 5.3 5.5 3.3 2.1 5 2.2 29.5 2.5 16.2 0.3 27.9 0 31-0.7 3.2-0.7 6-2.1 7.6-3.8 1.5-1.6 3.2-3.8 3.8-5 0.8-1.7 1.1-29.5 1.1-99 0-90.2-0.1-97-1.8-100.3-0.9-1.9-3.3-4.5-5.2-5.8-3.5-2.2-3.8-2.3-33-2.2-16.2 0.1-30.5 0.5-31.6 0.9z"/>
</svg>