<svg version="1.2" xmlns="http://www.w3.org/2000/svg" viewBox="0 0 512 512" width="512" height="512">
	<title>file</title>

	<path id="Path 0" class="s0" d="m170.5 14l-14 14h-99.5c-0.8 5-1 17.8-0.8 31.5l0.3 25c355.7 0.4 398.2 0.2 398.7-0.8 0.4-0.6 0.8-12.8 0.8-26.9 0-14.2-0.2-26.5-0.5-27.3-0.4-1.3-6.9-1.5-50.2-1.5h-49.8l-28-28h-143zm-85.3 275.7l0.3 175.8c3.6 10.1 6 15.5 7.8 18.5 1.7 3 5.8 8.2 9.1 11.5 3.4 3.3 8.4 7.2 11.1 8.7 2.7 1.5 8.4 3.9 12.5 5.3l7.5 2.5h245c11.6-3.9 17.2-6.3 20-7.8 2.7-1.5 7.7-5.4 11-8.7 3.4-3.3 7.5-8.5 9.2-11.5 1.7-3 4.2-8.4 5.5-12l2.3-6.5 0.4-351.5h-342z"/>
</svg>