<svg version="1.2" xmlns="http://www.w3.org/2000/svg" viewBox="0 0 512 512" width="512" height="512">
	<title>file</title>
	<style>
		.s0 { fill: #000000 } 
	</style>
	<path id="Path 0" class="s0" d="m246 26.1c-1.9 1.1-5.3 3.9-7.5 6.2-2.2 2.4-4.6 6.1-5.2 8.3-1 3-1.3 34.3-1.3 136.9v133c-45.8-45.7-54.7-53.9-57.5-55.1-2.2-0.9-6.3-1.6-9-1.6-2.8 0-6.9 0.8-9.5 2-2.5 1.1-5.9 3.5-7.7 5.3-1.8 1.9-3.9 5.2-4.8 7.4-0.9 2.2-1.7 6.3-1.7 9 0 2.9 0.8 6.9 2 9.5 1.5 3.5 13.4 15.8 51.3 53.6 41.4 41.1 50 49.3 53.4 50.2 2.2 0.6 5.6 1.2 7.5 1.2 1.9 0 5.5-0.7 8-1.5 3.8-1.3 11.7-8.8 53.4-50.3 32.7-32.6 49.4-50 50.7-52.7 1.2-2.5 1.9-6.2 1.9-10 0-3.7-0.7-7.5-1.9-10-1-2.2-3.4-5.4-5.2-7.2-1.9-1.8-5.2-3.9-7.4-4.8-2.2-0.9-6.2-1.7-9-1.7-2.7 0-6.8 0.7-9 1.6-2.8 1.2-11.7 9.4-30.8 28.4l-26.7 26.7c0-235.6-0.3-266.9-1.3-269.9-0.6-2.2-3-5.9-5.2-8.4-2.2-2.5-5.8-5.3-8-6.3-2.6-1.3-6.1-1.9-10-1.8-4 0-7.2 0.7-9.5 2zm-206 207.2c-1.9 0.6-5.8 3.4-8.6 6.2-3.5 3.5-5.4 6.4-6.2 9.5-1 3.5-1.2 28.1-1 106.6l0.3 102c6 12.3 9 16.5 12.2 19.4 2.6 2.4 8.1 5.9 12.1 7.7l7.2 3.3h400c11.2-5.1 16.7-8.6 19.3-11 3.2-2.9 6.2-7.1 8.5-11.9l3.7-7.5c0.5-193.8 0.4-206.5-1-209.8-0.8-2.1-3.4-5.8-5.7-8.3-2.8-2.9-5.9-5.1-8.8-6.1-2.5-0.8-6.1-1.4-8-1.4-1.9 0-5.3 0.6-7.5 1.2-2.4 0.8-6 3.2-9 6.3-3.1 3-5.5 6.6-6.3 9-0.9 3-1.2 27.8-1.2 97.8v93.7h-368c0-165.2-0.3-188.4-1.3-191.4-0.6-2.2-3-6-5.3-8.5q-4-4.6-9-6.4c-2.7-0.9-6.7-1.7-8.9-1.6-2.2 0.1-5.6 0.6-7.5 1.2z"/>
</svg>