<svg version="1.2" xmlns="http://www.w3.org/2000/svg" viewBox="0 0 512 512" width="512" height="512">
	<title>file</title>

	<path id="Path 0" class="s0" d="m411 2.4c-4.1 1.2-10 3.5-13 5-4.1 2.1-11.3 8.6-28 25.2l-22.5 22.4 109.5 109.5c32.7-32.6 44-44.7 46.2-48 2.1-3.3 4.8-8.9 5.9-12.5 1.1-3.6 2.3-9.4 2.6-13 0.3-3.6 0-9.7-0.6-13.5-0.7-4.1-2.9-10.6-5.3-15.5-3.8-8-5.2-9.7-25.7-30.1-18.2-18.2-22.6-22.1-28.1-24.8-3.6-1.7-9.9-4-14-5.1-4.1-1.1-10.2-1.9-13.5-1.9-3.3 0-9.4 1-13.5 2.3zm-236.7 225.9l-142.2 142.2c-28.8 115.4-32.3 130.7-31.7 133 0.5 1.6 2.2 4.3 4 5.8 2.7 2.5 3.7 2.8 7.6 2.4 2.5-0.2 31.7-7.3 65-15.6 33.3-8.3 61.6-15.6 63-16.1 1.4-0.6 66.3-64.8 144.3-142.8l141.7-141.7-109.5-109.5z"/>
</svg>