<svg version="1.2" xmlns="http://www.w3.org/2000/svg" viewBox="0 0 512 512" width="512" height="512">
	<title>file</title>

	<path id="Path 0" fill-rule="evenodd" class="s0" d="m226.5 0.5c2.2 0.2 6.5 1.3 9.5 2.4 3.2 1.1 7.7 4 10.8 6.8 3 2.6 6.5 7.1 7.8 9.8 1.5 3 2.7 7.6 3.1 11.5 0.3 3.7 0 8.1-1.7 14h26.5c15.3 0 27.6 0.4 29 1 1.4 0.5 3.4 2.5 4.5 4.3 1.8 2.8 2 4.9 2 18.7 0 12.8-0.4 16.2-1.9 19.5-0.9 2.2-3.2 5.2-4.9 6.8-1.8 1.5-4.9 3.1-7 3.7-2.3 0.6-32.3 1-79.2 1-46.9 0-76.9-0.4-79.3-1-2-0.6-5.3-2.5-7.4-4.2-2-1.8-4.2-4.8-5-6.5-0.9-2.3-1.3-8.3-1.3-36.3l6.8-7h53.7v-10.2c0-8.5 0.4-11.1 2.2-14.8 1.2-2.5 4-6.4 6.2-8.8 2.3-2.3 6-5.2 8.3-6.4 2.4-1.1 6.3-2.7 8.8-3.4 2.5-0.7 6.3-1.1 8.5-0.9zm-15.2 22.6c-1.1 1.3-2.7 4.2-3.4 6.4-1 3.2-1 4.9 0 8.5 0.7 2.5 1.8 5.1 2.5 5.8 0.8 0.9 4.8 1.3 14.8 1.2h13.8c2.6-6.1 3.1-9.4 2.9-12.7-0.3-3.2-1.2-6.2-2.5-8-1.1-1.5-3.6-3.8-5.5-5.1-2.5-1.7-4.8-2.2-8.9-2.2-3.6 0-6.5 0.7-8.5 1.9-1.7 1-4 2.9-5.2 4.2zm-90.3 32.9l0.3 15.8c0.3 14.2 0.5 16.2 2.7 21.1 1.6 3.4 4.4 7.1 7.5 9.8 2.7 2.4 7 5.1 9.5 5.9 3.8 1.2 16.7 1.4 166.5 0.9l5.5-3.1c3.3-1.8 7-5.1 9.2-8 2-2.7 4.2-6.5 4.7-8.4 0.6-1.9 1.1-10.4 1.1-34h22c19.3 0 22.6 0.2 27.2 1.9 3.1 1.2 7.2 3.8 9.8 6.3 2.4 2.4 5.3 6.3 6.5 8.8 2 4.5 2 5.8 2.5 279.5l-9.7 0.2c-6.1 0.1-12.8 1-17.8 2.3-4.4 1.1-10.7 3.3-14 4.8-3.3 1.6-8.3 4.3-11 6.2-2.8 1.9-7.9 6.1-11.4 9.4-3.5 3.4-8.2 8.8-10.4 12.1-2.2 3.3-5.3 8.7-6.9 12-1.5 3.3-3.7 9.6-4.9 14-1.5 5.7-2.1 11.1-2.2 19 0 7.4 0.5 13.5 1.7 18.5 1 4.1 3.7 11.6 6 16.5 2.4 4.9 6.8 12.1 9.9 16 3.1 3.9 8.9 9.6 12.9 12.7 4 3.2 11.5 7.7 16.5 10 5.1 2.4 9.3 4.6 9.3 5.1 0 0.4-63.8 0.7-283.5 0.7l-6.5-2.2c-4.9-1.6-7.7-3.4-11.6-7.2q-5.1-5.1-6.8-10.1c-1.5-4.6-1.6-20-1.6-209 0-176.4 0.2-204.6 1.5-208.5 0.8-2.5 3.1-6.5 5.2-8.9 2.1-2.4 5.6-5.3 7.8-6.4 2.2-1.1 5.1-2.4 6.5-2.8 1.4-0.4 12.3-0.8 46-0.9zm-1.5 112.9c-0.6 0-2.7-1.5-4.8-3.4-2.2-2.1-4.7-3.5-6.2-3.5-1.4 0-3.7 1.1-5 2.5-1.6 1.5-2.5 3.7-2.5 5.5 0 2.3 1.4 4.5 6.2 9.6 3.5 3.7 7.8 7.3 9.5 8 2.2 1 4 1.1 5.5 0.5 1.3-0.5 8.5-7.1 16-14.8 12.7-12.8 13.7-14.1 13.8-17.6 0-2.9-0.6-4.1-2.8-5.7-1.5-1.2-3.8-2.1-5.1-2-1.7 0-5.6 3.1-13 10.5-5.8 5.7-11.1 10.5-11.6 10.4zm67.5-5.1c-1.1 1.5-2.1 3.7-2 4.9 0 1.3 1.1 3.4 2.5 4.8l2.5 2.5c118.6 0 153.7-0.3 154.6-0.8 0.9-0.4 2.3-1.9 3-3.5 0.8-1.5 1.2-3.7 0.9-5-0.3-1.2-1.4-3.1-2.6-4.2-2.1-2-3.6-2-77.3-2.1-41.3-0.1-76.1 0-77.3 0.3-1.2 0.2-3.2 1.6-4.3 3.1zm-67.5 82.1c-6.3-5.8-8.5-6.9-10.5-6.9-2 0-4 0.9-5.5 2.5-1.5 1.5-2.5 3.6-2.5 5.3 0.1 2 2 4.7 7.8 10.5 6.7 6.7 8.2 7.7 11.1 7.7 3.1 0 5-1.5 17.8-14.2 12.8-12.9 14.3-14.7 14.3-17.8 0-2.4-0.7-4.2-2.2-5.7-1.5-1.4-3.6-2.3-5.7-2.3-3 0-4.7 1.3-14 10.4zm68-6.4c-1.3 1.4-2.4 3.6-2.5 5 0 1.4 0.3 3.3 0.7 4.2 0.5 0.9 2 2.3 3.5 3 2.3 1.1 16.7 1.4 78.3 1.4h75.5c4.6-3.9 5.3-5.5 5.3-8 0-2.6-0.7-4.1-2.7-5.8l-2.6-2.2h-153.1zm-58 73.3l-10 10.2c-6.7-6.6-8.3-7.5-10.8-7.4q-3.2 0.1-5.4 2.8c-1.3 1.4-2.3 3.8-2.3 5.4 0.1 2 1.9 4.6 7.3 10 4.7 4.7 8.3 7.5 10.4 8 3.2 0.7 3.7 0.3 18.3-14.3 12.6-12.6 15-15.5 15.1-18 0-1.6-0.8-4-1.8-5.2-1-1.2-2.9-2.4-4.3-2.7-1.4-0.3-3.4-0.2-4.5 0.3-1.2 0.4-6.6 5.3-12 10.9zm57.5 3.8c-1.2 1.5-2.2 3.6-2.1 4.8 0 1.2 1 3.3 2.1 4.9l2 2.7c140.6 0 154.9-0.2 156.5-1.3 1.1-0.8 2.3-2.6 2.8-4 0.4-1.7 0.2-3.7-0.7-5.4-0.7-1.6-2-3.1-3-3.5-0.9-0.5-36.2-0.8-78.5-0.8h-77zm200.3 46.4c4.8 0 12 0.7 16 1.6 4 0.9 10.4 3.1 14.3 4.8 3.8 1.8 9.9 5.5 13.4 8.2 3.5 2.7 8.6 7.6 11.3 10.9 2.6 3.3 6.1 8.5 7.7 11.5 1.6 3 3.8 8.2 4.8 11.5 1.1 3.3 2.6 9.6 3.3 14 1.2 7.3 1.1 8.9-0.8 19-1.4 6.8-3.5 13.6-5.6 18-1.8 3.8-5.4 9.8-8 13.2-2.5 3.5-7.4 8.6-10.9 11.4-3.4 2.8-9.4 6.7-13.2 8.6-3.9 1.9-10.4 4.4-14.5 5.4-4.8 1.2-11 1.9-17 1.9q-9.5 0-17.5-2.1c-4.4-1.1-10.9-3.6-14.5-5.5-3.6-1.9-9.1-5.4-12.3-7.9-3.1-2.5-7.8-7.1-10.3-10.3-2.5-3.1-6.3-9.3-8.4-13.7-2.1-4.4-4.6-11.3-5.4-15.3-0.9-4-1.6-10.9-1.6-15.5 0-5 0.7-11.3 2-16.2 1.1-4.4 3.3-10.7 4.9-14 1.5-3.3 5-8.9 7.7-12.5 2.7-3.5 7.6-8.6 10.9-11.2 3.3-2.7 9.1-6.4 13-8.3 3.8-2 10.4-4.4 14.5-5.5 4.5-1.1 11-1.9 16.2-2zm-9.2 76.5c-9.3-8.9-12.7-11.5-13.5-11.5-0.8 0-2.7 0.5-4 1.2-1.4 0.7-3 2.4-3.6 3.8-0.6 1.4-0.9 3.6-0.6 5 0.3 1.4 4.5 6.4 9.4 11.2 7.6 7.5 9.2 8.7 12.2 8.7 3.2 0.1 5.1-1.5 22.8-19.2 16.3-16.2 19.3-19.7 19.3-22.2 0-1.7-0.7-4-1.7-5.3-1-1.2-3.3-2.5-5-2.9-3.1-0.6-3.9 0.1-19.3 15.3z"/>
</svg>