<svg version="1.2" xmlns="http://www.w3.org/2000/svg" viewBox="0 0 512 512" width="512" height="512">
	<title>file</title>

	<path id="Path 0" fill-rule="evenodd" class="s0" d="m255.9 0.2c96.4 0.3 105.1 0.4 110.6 2.1 3.3 0.9 9.6 3.5 14 5.7 4.4 2.1 10.6 6 13.8 8.5 3.1 2.5 8.2 7.5 11.2 11.3 3.1 3.7 7.1 9.8 9 13.7 1.9 3.9 4.4 10.6 5.5 15 1.4 5.6 2.3 13.1 3.5 42.5h-335.5v-10.3c0-5.6 0.5-14.6 1-19.9 0.6-5.4 2.2-13.3 3.6-17.6 1.4-4.2 4.2-10.6 6.3-14.2 2.1-3.6 6.3-9.2 9.2-12.4 3-3.2 8.1-7.8 11.4-10.2 3.3-2.3 8.9-5.6 12.5-7.3 3.6-1.7 9.2-3.7 12.5-4.6 3.3-0.9 6.2-1.8 6.4-2 0.3-0.3 47.5-0.4 105-0.3zm2.6 129.1c179 0.2 191.4 0.3 197 2 3.3 0.9 9.6 3.5 14 5.7 4.4 2.1 10.6 6 13.8 8.5 3.1 2.5 8.2 7.5 11.2 11.2 3.1 3.8 7.1 10 9 13.8 1.9 3.8 4.5 10.8 5.7 15.5 2.3 8.5 2.3 8.9 2.3 78 0 69.1 0 69.5-2.3 78-1.2 4.7-3.8 11.6-5.7 15.5-1.9 3.9-5.9 10-9 13.7-3 3.8-8.1 8.8-11.3 11.3-3.1 2.5-9.3 6.4-13.7 8.5-4.4 2.2-10.7 4.7-14 5.6-3.3 0.9-12.2 1.9-33.5 2.9v-80.5h6.3c3.9 0 7.5-0.6 9.7-1.8 1.9-0.9 4.5-3.3 5.8-5.2 1.5-2.3 2.3-5 2.3-8 0-3-0.8-5.7-2.3-8-1.3-1.9-3.9-4.3-5.8-5.2-3.3-1.7-14.1-1.8-182.5-1.8-168.4 0-179.2 0.1-182.5 1.8-1.9 0.9-4.5 3.3-5.8 5.2-1.5 2.3-2.3 5-2.3 8 0 3 0.8 5.7 2.3 8 1.3 1.9 3.9 4.3 5.8 5.2 2.2 1.2 5.8 1.8 16 1.8v80.5l-13.2-0.7c-7.3-0.3-16-1.3-19.3-2.2-3.3-0.9-9.6-3.4-14-5.6-4.4-2.1-10.6-6-13.8-8.5-3.1-2.5-8.2-7.5-11.2-11.3-3.1-3.7-7.1-9.8-9-13.7-1.9-3.9-4.5-10.6-5.7-15-2.2-7.9-2.3-8.9-2.6-75-0.2-58.1 0-68.1 1.4-75.5 0.8-4.7 2.8-11.7 4.3-15.5 1.4-3.9 4.7-10.2 7.3-14 2.5-3.9 7.5-9.7 11.1-13 3.6-3.3 8.9-7.5 11.8-9.2 3-1.8 8.3-4.5 11.9-5.9 3.6-1.5 9.4-3.2 13-3.9 5.2-1.1 45.1-1.3 197.5-1.2zm-191.3 70.7c-1.5 2.3-2.3 5-2.3 8 0 3 0.8 5.7 2.3 8 1.3 1.9 3.9 4.3 5.8 5.2 3.1 1.6 6.8 1.8 30.5 1.8 23.7 0 27.4-0.2 30.5-1.8 1.9-0.9 4.5-3.3 5.8-5.2 1.5-2.3 2.3-5 2.3-8 0-3-0.8-5.7-2.3-8-1.3-1.9-3.9-4.3-5.8-5.2-3.1-1.6-6.8-1.8-30.5-1.8-23.7 0-27.4 0.2-30.5 1.8-1.9 0.9-4.5 3.3-5.8 5.2zm50.7 119h274.8l-0.2 169.5-2.5 5.4c-1.4 3-4.5 7.3-7 9.6-2.5 2.3-6.7 5.1-14.5 8.5h-226l-5-2.1c-2.7-1.3-7-4.1-9.5-6.4-2.5-2.3-5.6-6.6-9.5-15zm85.3 41c-1.5 2.3-2.3 5-2.3 8 0 3 0.8 5.7 2.3 8 1.3 1.9 3.9 4.3 5.8 5.2 3.2 1.6 7.5 1.8 46.5 1.8 38.9 0 43.3-0.2 46.5-1.8 1.9-0.9 4.5-3.3 5.7-5.2 1.6-2.3 2.3-5 2.3-8 0-3-0.7-5.7-2.3-8-1.2-1.9-3.8-4.3-5.7-5.2-3.2-1.6-7.6-1.8-46.5-1.8-39 0-43.3 0.2-46.5 1.8-1.9 0.9-4.5 3.3-5.8 5.2zm0 64c-1.5 2.3-2.3 5-2.3 8 0 3 0.8 5.7 2.3 8 1.3 1.9 3.9 4.3 5.8 5.2 3.2 1.6 7.5 1.8 46.5 1.8 38.9 0 43.3-0.2 46.5-1.8 1.9-0.9 4.5-3.3 5.7-5.2 1.6-2.3 2.3-5 2.3-8 0-3-0.7-5.7-2.3-8-1.2-1.9-3.8-4.3-5.7-5.2-3.2-1.6-7.6-1.8-46.5-1.8-39 0-43.3 0.2-46.5 1.8-1.9 0.9-4.5 3.3-5.8 5.2z"/>
</svg>