<svg version="1.2" xmlns="http://www.w3.org/2000/svg" viewBox="0 0 512 512" width="512" height="512">
	<title>file</title>

	<path id="Path 0" class="s0" d="m194.8 19.4c-31.2 10.5-56.9 19.3-57.2 19.6-0.2 0.3 26.3 9.4 59 20.3l59.4 19.7c92.2-30.6 118.6-39.8 118.2-40.1-0.4-0.4-26.6-9.3-58.2-19.8-36.4-12.1-58.8-19.1-61-19-1.9 0.1-29 8.8-60.2 19.3zm-193.6 377.4l0.3 74.9c5.4 7.2 6.5 7.6 52.8 22.9 25.9 8.6 47.7 16.1 48.2 16.5 0.5 0.5 1.6 0.9 2.3 0.9 0.9 0 1.2-16.2 1.2-77.7v-77.8c-80.2-26.7-103.8-34.5-104.3-34.5-0.4 0-0.6 33.7-0.5 74.8zm185.8-57.5l-51.4 17.2c0.3 120.5 0.5 155.5 0.6 155.5 0.2 0 23.7-7.8 52.3-17.3l52-17.4c0.5-139.5 0.3-155.3-0.7-155.2-0.7 0-24.5 7.8-52.8 17.2zm84 60.2v77.5c77.9 25.8 100.9 33.7 101.5 34.1 0.5 0.5 1.6 0.9 2.2 0.9 1 0 1.3-16.2 1.3-77.7v-77.8c-80.2-26.7-103.8-34.5-104.3-34.5-0.4 0-0.7 34.9-0.7 77.5zm186-60.2l-51.4 17.2c0.3 120.5 0.5 155.5 0.6 155.5 0.2 0 21.9-7.2 48.3-16 26.4-8.8 49.1-16.8 50.4-17.8 1.3-0.9 3.2-3.3 4.2-5.2 1.8-3.3 1.9-7 1.9-77.2 0-58.4-0.3-73.8-1.3-73.7-0.6 0-24.4 7.8-52.7 17.2zm-320.9-189.4l-0.1 79.1c79.4 26.5 103.1 34.4 103.7 34.6 1 0.3 1.2-15.8 1-78.8l-0.2-79.1c-78.3-26.1-101.7-34-102.7-34.3-1.5-0.5-1.6 5.4-1.7 78.5zm186.9-61.5l-51.5 17.3c-0.5 154.1-0.4 158.3 1.2 157.8 1-0.3 24.5-8.1 52.3-17.3l50.5-16.9c0.4-122.7 0.2-158.3-0.2-158.2-0.5 0-24 7.8-52.3 17.3zm-262 181.3c-32.1 10.7-58.3 19.8-58.2 20.1 0.1 0.4 26.9 9.6 59.5 20.5l59.2 19.7c91.1-30.2 117.5-39.5 117.5-40 0-0.6-26.4-9.8-58.8-20.5-32.3-10.7-59.2-19.5-59.7-19.4-0.6 0-27.3 8.8-59.5 19.6zm270 0c-32.1 10.7-58.3 19.8-58.2 20.1 0.1 0.4 26.9 9.6 59.5 20.5l59.2 19.7c91.1-30.2 117.5-39.5 117.5-40 0-0.6-26.4-9.8-58.8-20.5-32.3-10.7-59.2-19.5-59.7-19.4-0.6 0-27.3 8.8-59.5 19.6z"/>
</svg>